HIERARCHY
ROOT ui
{
	 OFFSET 0 0 0
	 CHANNELS 3 XPosition YPosition Z Position
	 EndSite
	 {
	 OFFSET 0 -1 0
	 }
}
ROOT li
{
	 OFFSET 0 0 0
	 CHANNELS 3 XPosition YPosition Z Position
	 EndSite
	 {
	 OFFSET 0 -1 0
	 }
}
ROOT ul
{
	 OFFSET 0 0 0
	 CHANNELS 3 XPosition YPosition Z Position
	 EndSite
	 {
	 OFFSET 0 -1 0
	 }
}
ROOT ll
{
	 OFFSET 0 0 0
	 CHANNELS 3 XPosition YPosition Z Position
	 EndSite
	 {
	 OFFSET 0 -1 0
	 }
}
ROOT tt
{
	 OFFSET 0 0 0
	 CHANNELS 3 XPosition YPosition Z Position
	 EndSite
	 {
	 OFFSET 0 -1 0
	 }
}
ROOT tb
{
	 OFFSET 0 0 0
	 CHANNELS 3 XPosition YPosition Z Position
	 EndSite
	 {
	 OFFSET 0 -1 0
	 }
}
ROOT td
{
	 OFFSET 0 0 0
	 CHANNELS 3 XPosition YPosition Z Position
	 EndSite
	 {
	 OFFSET 0 -1 0
	 }
}
ROOT v
{
	 OFFSET 0 0 0
	 CHANNELS 3 XPosition YPosition Z Position
	 EndSite
	 {
	 OFFSET 0 -1 0
	 }
}
ROOT bn
{
	 OFFSET 0 0 0
	 CHANNELS 3 XPosition YPosition Z Position
	 EndSite
	 {
	 OFFSET 0 -1 0
	 }
}
MOTION
Frames: 19
Frame Time: 0.002
-0.01998768424987793	-0.006162644863128662	0		0.5920797119140625	-2.52619775390625	0		-1.1893487548828126	-0.08260672760009766	0		-0.6868399047851562	-2.762922607421875	0		2.008498291015625	-0.8104696044921875	0		3.477203125	-0.6517677612304688	0		4.84703271484375	-0.29547116088867187	0		5.82504931640625	0.32004360961914063	0		-0.3059185485839844	5.8581162109375	0		
0.0033496429920196534	0.0019986989498138427	0		0.5932548828125	-2.52370263671875	0		-1.1953756103515625	-0.09694898986816407	0		-0.6826080322265625	-2.7564404296875	0		1.9482196044921876	-0.8390393676757812	0		3.429165771484375	-0.66557080078125	0		4.8241611328125	-0.2997108459472656	0		5.82031005859375	0.3364388427734375	0		-0.43986077880859376	5.8397861328125	0		
-0.02343265151977539	0.003949342966079712	0		0.544544189453125	-2.512420166015625	0		-1.2002432861328125	-0.10031285095214844	0		-0.7092965087890625	-2.743470947265625	0		1.89787353515625	-0.870775390625	0		3.390078369140625	-0.68152783203125	0		4.812033203125	-0.319138916015625	0		5.81798095703125	0.28696124267578127	0		-0.4253484191894531	5.84909521484375	0		
0.01156998634338379	-0.007096603870391845	0		0.59351416015625	-2.520707763671875	0		-1.1693232421875	-0.11625745391845703	0		-0.6721885986328126	-2.742529052734375	0		1.8347655029296874	-0.886316162109375	0		3.337974853515625	-0.6972908935546875	0		4.77505078125	-0.32818692016601564	0		5.8083984375	0.32943096923828125	0		-0.2936640930175781	5.868525390625	0		
8.98796021938324E-4	0.003575413942337036	0		0.580712890625	-2.5130224609375	0		-1.17725439453125	-0.12159272003173828	0		-0.6700469970703125	-2.738041748046875	0		1.804380126953125	-0.9183943481445312	0		3.318706298828125	-0.72259521484375	0		4.7549384765625	-0.3445234069824219	0		5.80119091796875	0.300833740234375	0		-0.3074624938964844	5.8592578125	0		
-0.003994719982147217	0.0011377520561218263	0		0.5876038208007812	-2.523671142578125	0		-1.1532841796875	-0.1324541320800781	0		-0.6659067993164063	-2.732601806640625	0		1.7231763916015626	-0.9376727294921875	0		3.2497802734375	-0.7251197509765624	0		4.73173046875	-0.36583209228515623	0		5.7983203125	0.2824090576171875	0		-0.3071250305175781	5.85875048828125	0		
-0.02086734962463379	8.741989731788635E-4	0		0.5377896118164063	-2.5144267578125	0		-1.1773052978515626	-0.1415628662109375	0		-0.6828291625976562	-2.729842041015625	0		1.6781290283203125	-0.946547119140625	0		3.226432373046875	-0.75339990234375	0		4.70370166015625	-0.37508737182617186	0		5.78623828125	0.27467486572265626	0		-0.44012631225585935	5.8383642578125	0		
0.008163420677185059	-0.00515018892288208	0		0.5907857055664063	-2.516859619140625	0		-1.1722607421875	-0.14615670776367187	0		-0.68344775390625	-2.707361572265625	0		1.6639521484375	-0.9629423828125	0		3.196748046875	-0.7396004028320312	0		4.68283740234375	-0.3734877014160156	0		5.78927392578125	0.2887835388183594	0		-0.4397884521484375	5.837822265625	0		
0.002369987964630127	3.6188799142837524E-4	0		0.58980859375	-2.516451416015625	0		-1.147322265625	-0.1570950164794922	0		-0.64745361328125	-2.708498779296875	0		1.6170765380859375	-0.9598353271484374	0		3.15857373046875	-0.7556986694335938	0		4.66577197265625	-0.383986328125	0		5.78203271484375	0.2599696350097656	0		-0.4414090270996094	5.83928857421875	0		
0.006412468910217285	-0.004313611984252929	0		0.585760498046875	-2.520022705078125	0		-1.1622193603515625	-0.1574141845703125	0		-0.6813603515625	-2.702532470703125	0		1.5811802978515626	-0.9579332275390625	0		3.114622314453125	-0.7577325439453125	0		4.634640625	-0.3982936706542969	0		5.77846044921875	0.2465164337158203	0		-0.3228722839355469	5.8487841796875	0		
-0.024359504699707032	0.00254773211479187	0		0.5749236450195313	-2.510511962890625	0		-1.1642940673828126	-0.16896971130371094	0		-0.6423092041015624	-2.69977685546875	0		1.5562843017578125	-0.956238037109375	0		3.104522216796875	-0.7693468017578124	0		4.631376953125	-0.4210871276855469	0		5.77783447265625	0.24672628784179687	0		-0.3083433837890625	5.85792919921875	0		
0.04568352127075195	-0.003262026071548462	0		0.585830078125	-2.5173876953125	0		-1.19522900390625	-0.17208477783203124	0		-0.7430382080078125	-2.6827783203125	0		1.466745361328125	-0.9325172119140624	0		3.07482080078125	-0.7566702270507812	0		4.617412109375	-0.42573675537109373	0		5.76642236328125	0.23346247863769531	0		-0.42811227416992187	5.84922607421875	0		
-0.021163909912109376	-0.001875154972076416	0		0.5858953857421875	-2.515118408203125	0		-1.1591138916015624	-0.17332418823242188	0		-0.6669902954101562	-2.68169091796875	0		1.46712548828125	-0.9152889404296874	0		3.05381982421875	-0.7631669311523438	0		4.61243994140625	-0.43156280517578127	0		5.7765986328125	0.24697747802734374	0		-0.428710205078125	5.84955615234375	0		
-0.0019452140331268312	0.0020757930278778075	0		0.58494384765625	-2.51486572265625	0		-1.1969439697265625	-0.17139138793945313	0		-0.71069775390625	-2.665682861328125	0		1.470569091796875	-0.8951419067382812	0		3.035896240234375	-0.7657410278320312	0		4.5837119140625	-0.4230249938964844	0		5.7603857421875	0.259763427734375	0		-0.3101400451660156	5.85890380859375	0		
-9.070720076560974E-4	-0.00571257209777832	0		0.5829798583984375	-2.516629150390625	0		-1.0928939208984374	-0.17882180786132812	0		-0.6407102661132813	-2.6705751953125	0		1.4251517333984376	-0.8672230224609375	0		3.026085693359375	-0.7624722900390625	0		4.57668505859375	-0.4338656311035156	0		5.759791015625	0.2597861938476563	0		-0.3107354736328125	5.8591591796875	0		
-0.02671798896789551	-0.0050932269096374515	0		0.5722235717773437	-2.50727880859375	0		-1.2026668701171874	-0.1747819366455078	0		-0.6725022583007813	-2.6628349609375	0		1.3976221923828125	-0.847625244140625	0		2.99321533203125	-0.76384765625	0		4.5803779296875	-0.46290216064453127	0		5.76525048828125	0.20417697143554686	0		-0.31231982421875	5.8603955078125	0		
-0.008430991172790527	-2.324499934911728E-4	0		0.5822337646484375	-2.514303955078125	0		-1.1664700927734375	-0.17517929077148436	0		-0.6564319458007812	-2.66591943359375	0		1.4161785888671874	-0.8248125610351562	0		2.97435107421875	-0.76647314453125	0		4.54375634765625	-0.4512838439941406	0		5.75632421875	0.23390672302246093	0		-0.2977947998046875	5.86833056640625	0		
0.0028374009132385255	0.0017095309495925902	0		0.5615689697265625	-2.503851318359375	0		-1.1873507080078125	-0.181676025390625	0		-0.6830505981445313	-2.652333984375	0		1.3877266845703125	-0.8042523803710937	0		2.9738310546875	-0.7504175415039063	0		4.53711376953125	-0.44317160034179687	0		5.75577783203125	0.23387469482421874	0		-0.4307239990234375	5.84966015625	0		
-9.510400295257568E-4	-0.002132462978363037	0		0.57281884765625	-2.501955078125	0		-1.099056884765625	-0.1810111846923828	0		-0.6607396240234376	-2.6465908203125	0		1.395149169921875	-0.794310546875	0		2.923179931640625	-0.7445537719726563	0		4.53021630859375	-0.4530695495605469	0		5.755259765625	0.23382891845703124	0		-0.32827407836914063	5.85107568359375	0		
